<svg width="60" height="60" viewBox="0 0 60 60" fill="none" xmlns="http://www.w3.org/2000/svg">
<path d="M6 46.8848V8H19.4093C23.8343 8 27.2023 8.88132 29.5133 10.644C31.8243 12.4066 32.9798 15.0327 32.9798 18.5224C32.9798 20.3028 32.4961 21.9052 31.5287 23.3296C30.5613 24.7539 29.1461 25.8578 27.2829 26.6412C29.3969 27.2109 31.0271 28.2881 32.1737 29.8727C33.3381 31.4395 33.9204 33.3267 33.9204 35.5345C33.9204 39.1844 32.738 41.9886 30.3732 43.9471C28.0264 45.9055 24.6584 46.8848 20.2692 46.8848H6ZM12.7987 29.3386V41.4901H20.3498C22.4817 41.4901 24.1478 40.9648 25.3481 39.9144C26.5484 38.8639 27.1485 37.4039 27.1485 35.5345C27.1485 31.4929 25.0704 29.4276 20.9142 29.3386H12.7987ZM12.7987 24.3711H19.4631C21.577 24.3711 23.2252 23.8993 24.4076 22.9557C25.6079 21.9943 26.208 20.6411 26.208 18.8963C26.208 16.9734 25.6527 15.5847 24.5419 14.7301C23.4491 13.8754 21.7382 13.4481 19.4093 13.4481H12.7987V24.3711Z" fill="#DA2128"/>
<path d="M47.6012 38.2844V52.962H54L54 13.46L39.9126 13.46C35.7985 13.46 32.5358 14.6085 30.1247 16.9056C27.6967 19.2026 26.4827 22.2412 26.4827 26.0214C26.4827 29.892 27.6714 32.9035 30.0488 35.0559C32.4094 37.2082 35.7226 38.2844 39.9884 38.2844H47.6012ZM47.6012 32.7769L39.9126 32.7769C37.6363 32.7769 35.8996 32.2072 34.7025 31.0677C33.5053 29.9101 32.9068 28.2461 32.9068 26.0757C32.9068 23.9414 33.5138 22.2412 34.7278 20.9752C35.9418 19.691 37.611 19.0308 39.7355 18.9946L47.6012 18.9946L47.6012 32.7769Z" fill="#DA2128"/>
</svg>
